<svg width="50" height="50" viewBox="0 0 50 50" fill="none" xmlns="http://www.w3.org/2000/svg">
<path d="M0 12.8C0 8.31958 0 6.07937 0.871948 4.36808C1.63893 2.86278 2.86278 1.63893 4.36808 0.871948C6.07937 0 8.31958 0 12.8 0H37.2C41.6804 0 43.9206 0 45.6319 0.871948C47.1372 1.63893 48.3611 2.86278 49.1281 4.36808C50 6.07937 50 8.31958 50 12.8V37.2C50 41.6804 50 43.9206 49.1281 45.6319C48.3611 47.1372 47.1372 48.3611 45.6319 49.1281C43.9206 50 41.6804 50 37.2 50H12.8C8.31958 50 6.07937 50 4.36808 49.1281C2.86278 48.3611 1.63893 47.1372 0.871948 45.6319C0 43.9206 0 41.6804 0 37.2V12.8Z" fill="#E9E9E9"/>
<path d="M37.1923 28.9169L37.9231 27.8024C37.6154 27.4904 37.1923 27 35.8846 27C34.6923 27 34 27.7945 34 28.9169C34.0385 31.1013 36.6741 30.2041 36.6923 31.1904C36.6964 31.4114 36.5 31.7254 35.9231 31.7254C35.3461 31.7254 34.8177 31.1091 34.5769 30.9675L33.7308 31.9929C34.0385 32.3049 34.7308 33 36.0385 33C37.2308 33 38 32.2501 38 31.1277C38 29.0506 35.3258 29.6747 35.3077 28.694C35.3036 28.4731 35.6538 28.3374 35.9231 28.3374C36.4558 28.3374 36.9516 28.7753 37.1923 28.9169Z" fill="#343434"/>
<path d="M33.3846 32.8844H29.3846V27.0891H33.3077V28.4645H30.7754V29.2925H33.0753V30.6338H30.7754V31.5175H33.3846V32.8844Z" fill="#343434"/>
<path d="M27.0835 32.8844V29.5423L25.8462 31.8145L24.6088 29.5423V32.8844H23.2308V27.0891H24.6418L25.8418 29.2971L27.0506 27.0891H28.4616V32.8844H27.0835Z" fill="#343434"/>
<path d="M17.2692 32.8844L19.3795 27.0891H20.6646L22.7308 32.8844H21.2814L20.9466 31.8401H19.0623L18.7186 32.8844H17.2692ZM19.9836 28.8769L19.4564 30.5545H20.5524L19.9836 28.8769Z" fill="#343434"/>
<path d="M16.6923 27.847L15.9007 28.9431C15.4638 28.6018 15.135 28.382 14.6923 28.382C14.2024 28.382 14.1177 28.4646 13.8462 28.7832C13.5805 29.1018 13.4231 29.415 13.4231 29.9953C13.4231 30.5927 13.5805 30.9278 13.8462 31.235C14.1118 31.5365 14.3591 31.6362 14.8077 31.6362C15.1737 31.6362 15.3289 31.5726 15.565 31.4133V30.7748H14.5058V29.4577H16.9231V32.2824C16.6752 32.4758 16.3446 32.6408 15.9314 32.7773C15.5182 32.9082 15.1168 32.9736 14.7272 32.9736C13.948 32.9736 13.2987 32.7062 12.7792 32.1714C12.2597 31.631 12 30.9056 12 29.9953C12 29.0794 12.2597 28.3512 12.7792 27.8107C13.2987 27.2702 13.9131 27 14.6923 27C15.8462 27 16.1669 27.3976 16.6923 27.847Z" fill="#343434"/>
<path d="M0 36.6667H50V42C50 46.4183 46.4183 50 42 50H8C3.58172 50 0 46.4183 0 42V36.6667Z" fill="#666666"/>
<path d="M17.4224 43.6628C17.4224 43.8747 17.395 44.0615 17.3403 44.2233C17.2879 44.3851 17.2127 44.5252 17.1147 44.6437C17.019 44.7622 16.9051 44.8613 16.773 44.9411C16.6408 45.0208 16.4961 45.0846 16.3389 45.1325C16.1839 45.1803 16.0187 45.2145 15.8433 45.235C15.6701 45.2555 15.4935 45.2658 15.3135 45.2658C15.0765 45.2658 14.8577 45.2475 14.6572 45.2111C14.4567 45.1769 14.2676 45.1222 14.0898 45.047C13.9144 44.9696 13.7446 44.8704 13.5806 44.7497C13.4188 44.6289 13.257 44.4819 13.0952 44.3087L13.7925 43.6012C13.8563 43.7585 13.944 43.9043 14.0557 44.0387C14.1673 44.1709 14.2892 44.2848 14.4214 44.3805C14.5558 44.4762 14.6948 44.5514 14.8384 44.6061C14.9819 44.6608 15.1175 44.6881 15.2451 44.6881C15.3955 44.6881 15.5368 44.6779 15.6689 44.6574C15.8011 44.6346 15.9162 44.5981 16.0142 44.548C16.1121 44.4979 16.1885 44.4318 16.2432 44.3498C16.3001 44.2655 16.3286 44.1606 16.3286 44.0353C16.3286 43.9396 16.307 43.8576 16.2637 43.7892C16.2204 43.7209 16.1634 43.6628 16.0928 43.6149C16.0244 43.5648 15.9458 43.5226 15.8569 43.4884C15.7681 43.4543 15.6769 43.4258 15.5835 43.403C15.4924 43.3779 15.4023 43.3563 15.3135 43.338C15.2246 43.3175 15.146 43.297 15.0776 43.2765C14.9432 43.2378 14.8031 43.1968 14.6572 43.1535C14.5114 43.1079 14.3678 43.0566 14.2266 42.9997C14.0853 42.9427 13.9508 42.8778 13.8232 42.8048C13.6979 42.7296 13.5874 42.6419 13.4917 42.5417C13.396 42.4391 13.3197 42.3218 13.2627 42.1896C13.2057 42.0552 13.1772 41.9014 13.1772 41.7282C13.1772 41.5208 13.2023 41.3374 13.2524 41.1779C13.3049 41.0161 13.3778 40.876 13.4712 40.7575C13.5646 40.639 13.6751 40.5399 13.8027 40.4601C13.9303 40.3781 14.0705 40.3131 14.2231 40.2653C14.3758 40.2152 14.5376 40.1798 14.7085 40.1593C14.8817 40.1365 15.0583 40.1252 15.2383 40.1252C15.4844 40.1252 15.7077 40.1479 15.9082 40.1935C16.111 40.2391 16.2979 40.304 16.4688 40.3883C16.6396 40.4726 16.7957 40.574 16.937 40.6925C17.0806 40.8087 17.215 40.9386 17.3403 41.0822L16.6431 41.7897C16.5884 41.6256 16.512 41.4775 16.4141 41.3454C16.3184 41.2132 16.2113 41.1004 16.0928 41.007C15.9743 40.9113 15.8501 40.8384 15.7202 40.7882C15.5903 40.7358 15.465 40.7096 15.3442 40.7096C15.187 40.7096 15.0423 40.721 14.9102 40.7438C14.778 40.7643 14.6641 40.7996 14.5684 40.8498C14.4749 40.8976 14.402 40.9637 14.3496 41.048C14.2972 41.13 14.271 41.2326 14.271 41.3556C14.271 41.4536 14.2904 41.5368 14.3291 41.6051C14.3678 41.6735 14.4191 41.7316 14.4829 41.7794C14.549 41.8273 14.623 41.8672 14.7051 41.8991C14.7871 41.9287 14.8714 41.9549 14.958 41.9777C15.0469 42.0005 15.1335 42.021 15.2178 42.0392C15.3044 42.0552 15.383 42.0734 15.4536 42.0939C15.5903 42.1326 15.7339 42.1737 15.8843 42.2169C16.0347 42.2602 16.1828 42.3115 16.3286 42.3708C16.4744 42.4277 16.6134 42.4938 16.7456 42.569C16.8778 42.6442 16.994 42.7342 17.0942 42.839C17.1945 42.9416 17.2743 43.0612 17.3335 43.1979C17.3927 43.3323 17.4224 43.4873 17.4224 43.6628ZM20.5054 45.1667H19.1484V40.8737H17.8086V40.2448H21.8452V40.8737H20.5054V45.1667ZM27.4541 42.6989C27.4541 43.0954 27.3857 43.4531 27.249 43.7721C27.1123 44.0889 26.9232 44.3577 26.6816 44.5788C26.4401 44.7998 26.1541 44.9696 25.8237 45.088C25.4933 45.2065 25.1356 45.2658 24.7505 45.2658C24.3654 45.2658 24.0077 45.2065 23.6772 45.088C23.3468 44.9696 23.0609 44.7998 22.8193 44.5788C22.5778 44.3577 22.3887 44.0889 22.252 43.7721C22.1152 43.4531 22.0469 43.0954 22.0469 42.6989C22.0469 42.2956 22.1141 41.9355 22.2485 41.6188C22.3853 41.2998 22.5732 41.0309 22.8125 40.8122C23.054 40.5911 23.34 40.4225 23.6704 40.3063C24.0008 40.1878 24.3608 40.1286 24.7505 40.1286C25.1401 40.1286 25.5002 40.1878 25.8306 40.3063C26.161 40.4225 26.4458 40.5911 26.6851 40.8122C26.9266 41.0309 27.1146 41.2998 27.249 41.6188C27.3857 41.9355 27.4541 42.2956 27.4541 42.6989ZM26.0732 42.6989C26.0732 42.5485 26.0664 42.3947 26.0527 42.2375C26.0391 42.0802 26.014 41.9276 25.9775 41.7794C25.9411 41.6313 25.891 41.4923 25.8271 41.3625C25.7656 41.2326 25.6859 41.1198 25.5879 41.0241C25.4899 40.9261 25.3714 40.8498 25.2324 40.7951C25.0957 40.7381 24.9351 40.7096 24.7505 40.7096C24.5636 40.7096 24.4007 40.7381 24.2617 40.7951C24.1227 40.8498 24.0042 40.925 23.9063 41.0207C23.8083 41.1164 23.7285 41.2292 23.667 41.359C23.6055 41.4889 23.5565 41.6279 23.52 41.776C23.4858 41.9219 23.4619 42.0745 23.4482 42.234C23.4346 42.3913 23.4277 42.5462 23.4277 42.6989C23.4277 42.8493 23.4346 43.0031 23.4482 43.1603C23.4619 43.3175 23.487 43.4702 23.5234 43.6183C23.5599 43.7641 23.6089 43.902 23.6704 44.0319C23.7342 44.1618 23.8151 44.2757 23.9131 44.3737C24.0111 44.4694 24.1284 44.5457 24.2651 44.6027C24.4041 44.6597 24.5659 44.6881 24.7505 44.6881C24.9305 44.6881 25.0877 44.6597 25.2222 44.6027C25.3566 44.5434 25.4728 44.4648 25.5708 44.3669C25.6688 44.2666 25.7497 44.1515 25.8135 44.0216C25.8796 43.8895 25.9308 43.7505 25.9673 43.6046C26.006 43.4565 26.0334 43.305 26.0493 43.1501C26.0653 42.9951 26.0732 42.8447 26.0732 42.6989ZM29.6553 45.1667H28.2983V40.2448H30.7183C30.9461 40.2448 31.166 40.2721 31.3779 40.3268C31.5898 40.3792 31.7767 40.4635 31.9385 40.5797C32.1025 40.6937 32.2324 40.8418 32.3281 41.0241C32.4261 41.2064 32.4751 41.4274 32.4751 41.6872C32.4751 41.89 32.4318 42.0814 32.3452 42.2614C32.2609 42.4391 32.147 42.5986 32.0034 42.7399C31.8621 42.8789 31.6992 42.9951 31.5146 43.0885C31.3301 43.1797 31.1387 43.2401 30.9404 43.2697C31.0293 43.4201 31.1216 43.5625 31.2173 43.6969C31.3153 43.8314 31.4132 43.9578 31.5112 44.0763C31.6115 44.1925 31.7106 44.3008 31.8086 44.401C31.9066 44.499 32 44.589 32.0889 44.6711C32.2985 44.8625 32.5059 45.0277 32.7109 45.1667H31.019C30.8823 45.0368 30.7524 44.8807 30.6294 44.6984C30.5246 44.5434 30.4186 44.352 30.3115 44.1242C30.2067 43.894 30.1258 43.6286 30.0688 43.3278H29.6553V45.1667ZM31.0977 41.6872C31.0977 41.3568 31.0168 41.1141 30.855 40.9591C30.6955 40.8042 30.4551 40.7267 30.1338 40.7267H29.6553V42.8629H30.1338C30.3047 42.8629 30.4505 42.831 30.5713 42.7672C30.6943 42.7012 30.7946 42.6146 30.8721 42.5075C30.9495 42.3981 31.0065 42.2728 31.043 42.1315C31.0794 41.9902 31.0977 41.8421 31.0977 41.6872ZM36.8843 45.1667H33.3501V40.2448H36.8843V40.8737H34.707V42.3947H36.3887V43.0202H34.707V44.5378H36.8843V45.1667Z" fill="white"/>
<path d="M9.291 17.4957C9.06567 17.4957 8.89233 17.4133 8.771 17.2487L7.172 14.3887C7.12 14.302 7.068 14.2197 7.016 14.1417C6.97267 14.055 6.92933 13.9683 6.886 13.8817L6.834 13.8947C6.834 13.9987 6.834 14.1027 6.834 14.2067C6.834 14.3107 6.834 14.419 6.834 14.5317V19.2767C6.834 19.554 6.574 19.6927 6.054 19.6927H5.677C5.157 19.6927 4.897 19.554 4.897 19.2767V10.9567C4.897 10.6793 5.157 10.5407 5.677 10.5407H6.366C6.55667 10.5407 6.72133 10.5667 6.86 10.6187C7.00733 10.6707 7.11567 10.7617 7.185 10.8917L9.343 14.7397C9.36033 14.7743 9.382 14.809 9.408 14.8437C9.434 14.8783 9.45567 14.9173 9.473 14.9607C9.49033 14.9173 9.50767 14.8783 9.525 14.8437C9.551 14.809 9.57267 14.7743 9.59 14.7397L11.787 10.8917C11.8563 10.7617 11.9603 10.6707 12.099 10.6187C12.2463 10.5667 12.4153 10.5407 12.606 10.5407H13.282C13.802 10.5407 14.062 10.6793 14.062 10.9567V19.2767C14.062 19.554 13.802 19.6927 13.282 19.6927H12.905C12.385 19.6927 12.125 19.554 12.125 19.2767V14.5317C12.125 14.419 12.125 14.3107 12.125 14.2067C12.125 14.1027 12.125 13.9987 12.125 13.8947L12.073 13.8817C12.0297 13.9683 11.982 14.055 11.93 14.1417C11.8867 14.2197 11.839 14.302 11.787 14.3887L10.188 17.2487C10.0667 17.4133 9.89333 17.4957 9.668 17.4957H9.291ZM16.4381 19.7057C15.9181 19.7057 15.6581 19.5627 15.6581 19.2767V10.9567C15.6581 10.6707 15.9181 10.5277 16.4381 10.5277H16.8931C17.4131 10.5277 17.6731 10.6707 17.6731 10.9567V19.2767C17.6731 19.5627 17.4131 19.7057 16.8931 19.7057H16.4381ZM20.0547 19.6927C19.5347 19.6927 19.2747 19.554 19.2747 19.2767V10.9567C19.2747 10.6793 19.5347 10.5407 20.0547 10.5407H20.6137C20.8044 10.5407 20.969 10.5623 21.1077 10.6057C21.255 10.649 21.3764 10.7443 21.4717 10.8917L24.3967 15.4027C24.492 15.5327 24.5744 15.6583 24.6437 15.7797C24.7217 15.901 24.7954 16.031 24.8647 16.1697L24.9167 16.1567C24.908 16.0093 24.8994 15.875 24.8907 15.7537C24.8907 15.6237 24.8907 15.4633 24.8907 15.2727V10.9567C24.8907 10.6793 25.1507 10.5407 25.6707 10.5407H26.0477C26.5677 10.5407 26.8277 10.6793 26.8277 10.9567V19.2767C26.8277 19.554 26.5677 19.6927 26.0477 19.6927H25.5537C25.363 19.6927 25.194 19.671 25.0467 19.6277C24.908 19.5843 24.791 19.489 24.6957 19.3417L21.7057 14.7657C21.619 14.6357 21.5367 14.51 21.4587 14.3887C21.3807 14.2673 21.307 14.1373 21.2377 13.9987L21.1857 14.0117C21.203 14.159 21.2117 14.2977 21.2117 14.4277C21.2117 14.549 21.2117 14.705 21.2117 14.8957V19.2767C21.2117 19.554 20.9517 19.6927 20.4317 19.6927H20.0547ZM28.3844 19.6927C27.8558 19.6927 27.5914 19.5973 27.5914 19.4067C27.5914 19.372 27.5958 19.3373 27.6044 19.3027C27.6218 19.2593 27.6348 19.216 27.6434 19.1727L30.5034 10.8137C30.5728 10.6317 30.8198 10.5407 31.2444 10.5407H31.9204C32.3538 10.5407 32.6008 10.6317 32.6614 10.8137L35.5214 19.1727C35.5474 19.2593 35.5604 19.3373 35.5604 19.4067C35.5604 19.5973 35.3438 19.6927 34.9104 19.6927H34.3384C34.1478 19.6927 33.9874 19.6753 33.8574 19.6407C33.7274 19.5973 33.6451 19.5237 33.6104 19.4197L33.0904 17.8337H30.0224L29.5024 19.4197C29.4678 19.515 29.3984 19.5843 29.2944 19.6277C29.1904 19.671 29.0604 19.6927 28.9044 19.6927H28.3844ZM30.5814 16.1177H32.5314L31.7904 13.8037C31.7471 13.665 31.7081 13.5263 31.6734 13.3877C31.6474 13.249 31.6214 13.1103 31.5954 12.9717H31.5434C31.5174 13.1103 31.4914 13.249 31.4654 13.3877C31.4394 13.5263 31.4004 13.665 31.3484 13.8037L30.5814 16.1177ZM37.2151 19.6927C36.6951 19.6927 36.4351 19.554 36.4351 19.2767V10.9567C36.4351 10.6793 36.6951 10.5407 37.2151 10.5407H37.6701C38.1901 10.5407 38.4501 10.6793 38.4501 10.9567V14.1677H41.9601V10.9567C41.9601 10.6793 42.2201 10.5407 42.7401 10.5407H43.1951C43.7151 10.5407 43.9751 10.6793 43.9751 10.9567V19.2767C43.9751 19.554 43.7151 19.6927 43.1951 19.6927H42.7401C42.2201 19.6927 41.9601 19.554 41.9601 19.2767V15.8837H38.4501V19.2767C38.4501 19.554 38.1901 19.6927 37.6701 19.6927H37.2151Z" fill="#DAA400"/>
<path d="M16.75 6.5L17.1429 7.70922H18.4143L17.3857 8.45656L17.7786 9.66578L16.75 8.91844L15.7214 9.66578L16.1143 8.45656L15.0857 7.70922H16.3571L16.75 6.5Z" fill="#DAA400"/>
</svg>
